#!OML:ASF E:\Steps\Project 1\Capture day 1\Session 2\Subject.ASF
:FULLY-SPECIFIED
:DEGREES
584
root 9.9833 16.2934 17.2298 223.473 87.01 197.467
lowerback -27.0624 -2.19997 -6.36674
upperback -3.50553 -0.482546 -1.15192
thorax 11.1728 -0.309041 2.22079
lowerneck 0.345891 -6.04949 -1.30047
upperneck -15.5719 -6.7138 8.90833
head -4.33549 -3.55363 3.18363
rclavicle -1.68967e-015 1.35174e-014
rhumerus -53.693 -42.862 -51.2783
rradius 13.529
rwrist 29.882
rhand -7.2657 -51.2565
rfingers 7.12502
rthumb 18.6153 -80.3858
lclavicle -1.68967e-015 1.35174e-014
lhumerus -39.74 20.8104 63.4189
lradius 5.23229
lwrist -25.6909
lhand -20.8992 -15.3531
lfingers 7.12502
lthumb 5.47169 14.5563
rfemur -33.8148 11.8624 13.5711
rtibia 17.4526
rfoot -23.7368 -13.3595
rtoes -34.022
lfemur -35.9562 -15.0499 -11.9327
ltibia 20.2753
lfoot -10.6885 4.42643
ltoes -36.9962
585
root 9.98914 16.2918 17.2202 221.785 86.916 195.698
lowerback -27.098 -2.20253 -6.36347
upperback -3.52469 -0.476869 -1.18756
thorax 11.1687 -0.303403 2.18067
lowerneck 0.415241 -6.01831 -1.3454
upperneck -15.5997 -6.67779 8.8689
head -4.35724 -3.53349 3.18113
rclavicle 1.78906e-015 1.35174e-014
rhumerus -53.4823 -42.9978 -51.447
rradius 13.5444
rwrist 29.8037
rhand -7.49819 -51.2027
rfingers 7.12502
rthumb 18.3916 -80.3532
lclavicle 1.78906e-015 1.35174e-014
lhumerus -39.5567 20.8062 63.6954
lradius 5.53058
lwrist -25.6466
lhand -26.2013 -11.4038
lfingers 7.12502
lthumb 0.351303 18.5756
rfemur -33.8811 11.7189 13.4642
rtibia 17.5039
rfoot -23.6389 -13.2226
rtoes -32.8677
lfemur -36.0242 -15.2002 -11.9837
ltibia 20.2353
lfoot -10.5809 4.46052
ltoes -37.8124
586
root 9.99639 16.2932 17.2123 221.763 86.7662 195.751
lowerback -26.9831 -2.22239 -6.26218
upperback -3.50329 -0.552978 -1.12914
thorax 11.1391 -0.337509 2.1618
lowerneck 0.461685 -5.94349 -1.51523
upperneck -15.6407 -6.58826 8.83552
head -4.3766 -3.48033 3.19867
rclavicle -1.25234e-014 7.95139e-015
rhumerus -52.8481 -42.6654 -52.1216
rradius 13.6674
rwrist 29.4845
rhand -7.13433 -51.0087
rfingers 7.12502
rthumb 18.7416 -80.1259
lclavicle -1.25234e-014 7.95139e-015
lhumerus -39.324 21.0178 64.0156
lradius 5.57965
lwrist -25.9153
lhand -19.9456 -15.0337
lfingers 7.12502
lthumb 6.3923 14.8498
rfemur -33.7014 11.6426 13.5634
rtibia 17.4479
rfoot -23.492 -13.3021
rtoes -32.0921
lfemur -35.8762 -15.248 -11.977
ltibia 20.1296
lfoot -10.5183 4.30656
ltoes -37.4663
587
root 10.0025 16.2893 17.2049 220.151 86.699 194.116
lowerback -26.9404 -2.30559 -6.313
upperback -3.50756 -0.656884 -1.07855
thorax 11.1216 -0.388735 2.21125
lowerneck 0.528368 -5.85733 -1.62847
upperneck -15.7568 -6.47201 8.80903
head -4.4258 -3.41788 3.21135
rclavicle 1.68967e-015 -3.81667e-014
rhumerus -52.163 -42.2883 -52.8053
rradius 13.7638
rwrist 29.1046
rhand -7.02861 -51.2107
rfingers 7.12502
rthumb 18.8433 -80.318
lclavicle 1.68967e-015 -3.81667e-014
lhumerus -39.1175 21.2713 64.2794
lradius 5.65417
lwrist -26.1609
lhand -20.7089 -15.1496
lfingers 7.12502
lthumb 5.65537 14.7549
rfemur -33.6868 11.6814 13.395
rtibia 17.4027
rfoot -23.3266 -13.5178
rtoes -31.336
lfemur -35.8995 -15.499 -11.9582
ltibia 20.1286
lfoot -10.6317 4.18764
ltoes -35.1887
588
root 10.0112 16.293 17.2 221.367 86.6009 195.4
lowerback -26.8538 -2.3287 -6.25317
upperback -3.48686 -0.722065 -1.02023
thorax 11.1055 -0.4197 2.21994
lowerneck 0.582616 -5.80247 -1.60408
upperneck -15.8272 -6.39237 8.79104
head -4.46233 -3.38069 3.20362
rclavicle 4.96962e-015 -7.95139e-016
rhumerus -52.1777 -42.7938 -52.4333
rradius 13.6128
rwrist 29.8319
rhand -7.46982 -51.1821
rfingers 7.12502
rthumb 18.4189 -80.3301
lclavicle 4.96962e-015 -7.95139e-016
lhumerus -38.8725 21.4349 64.4619
lradius 5.795
lwrist -26.1107
lhand -24.1492 -14.1034
lfingers 7.12502
lthumb 2.33325 15.8636
rfemur -33.5306 11.7611 13.5461
rtibia 17.3331
rfoot -23.0234 -13.5901
rtoes -31.1634
lfemur -35.7385 -15.7161 -11.7687
ltibia 20.0537
lfoot -10.7976 4.08023
ltoes -32.1078
589
root 10.0189 16.2966 17.1984 220.964 86.6228 195.093
lowerback -26.732 -2.36846 -6.36118
upperback -3.46484 -0.758482 -0.993765
thorax 11.0719 -0.443028 2.2995
lowerneck 0.610111 -5.76743 -1.52956
upperneck -15.8663 -6.34002 8.76559
head -4.48561 -3.35848 3.1844
rclavicle 7.95139e-015 -7.95139e-016
rhumerus -52.5437 -43.6986 -51.4871
rradius 13.3313
rwrist 31.2821
rhand -7.7187 -50.6144
rfingers 7.12502
rthumb 18.1795 -79.7848
lclavicle 7.95139e-015 -7.95139e-016
lhumerus -38.5583 21.6526 64.7277
lradius 5.86549
lwrist -26.2129
lhand -22.8747 -14.7327
lfingers 7.12502
lthumb 3.56412 15.2172
rfemur -33.3866 11.7209 13.6092
rtibia 17.3343
rfoot -22.5821 -13.6902
rtoes -31.9497
lfemur -35.5145 -15.776 -11.8499
ltibia 19.892
lfoot -10.7301 4.22155
ltoes -32.9333
590
root 10.0265 16.2974 17.1939 218.718 86.6712 192.81
lowerback -26.7749 -2.39403 -6.52426
upperback -3.46413 -0.734713 -1.02464
thorax 11.0948 -0.437767 2.36618
lowerneck 0.697912 -5.7591 -1.47965
upperneck -15.9791 -6.31668 8.75949
head -4.53832 -3.3518 3.18004
rclavicle -1.22253e-014 5.56597e-015
rhumerus -52.1132 -43.5267 -51.9696
rradius 13.3808
rwrist 31.0746
rhand -7.72795 -50.2213
rfingers 7.12502
rthumb 18.1706 -79.3925
lclavicle -1.22253e-014 5.56597e-015
lhumerus -38.3386 21.6976 64.9968
lradius 6.10596
lwrist -26.4499
lhand -19.344 -16.117
lfingers 7.12502
lthumb 6.97308 13.7482
rfemur -33.4103 11.6763 13.4325
rtibia 17.3389
rfoot -22.1178 -13.8891
rtoes -32.519
lfemur -35.491 -15.8573 -12.0435
ltibia 19.7793
lfoot -10.5863 4.48308
ltoes -35.4242
591
root 10.0345 16.2945 17.1824 214.008 86.8119 188.078
lowerback -26.8135 -2.38346 -6.73195
upperback -3.45713 -0.6378 -1.14941
thorax 11.1156 -0.397693 2.37819
lowerneck 0.808218 -5.75721 -1.46201
upperneck -16.106 -6.30068 8.76977
head -4.59683 -3.34835 3.18727
rclavicle 6.36111e-015 1.19271e-014
rhumerus -51.3733 -42.9041 -53.0663
rradius 13.6257
rwrist 30.0456
rhand -7.67685 -50.1462
rfingers 7.12502
rthumb 18.2198 -79.3129
lclavicle 6.36111e-015 1.19271e-014
lhumerus -38.1934 21.5816 65.168
lradius 6.47398
lwrist -26.5
lhand -20.5519 -15.8016
lfingers 7.12502
lthumb 5.807 14.0988
rfemur -33.4233 11.4263 13.1098
rtibia 17.318
rfoot -21.6979 -13.9223
rtoes -32.9051
lfemur -35.4279 -16.2084 -12.3418
ltibia 19.7445
lfoot -10.6885 4.61667
ltoes -34.0384
592
root 10.0436 16.2971 17.1712 217.037 86.5765 190.882
lowerback -27.07 -2.36155 -6.42013
upperback -3.50945 -0.683042 -1.08227
thorax 11.1906 -0.405259 2.25802
lowerneck 0.911245 -5.70475 -1.50009
upperneck -16.1903 -6.23207 8.7235
head -4.64394 -3.31299 3.18308
rclavicle 1.39149e-015 -1.59028e-015
rhumerus -50.5357 -42.208 -54.1632
rradius 13.7931
rwrist 28.9292
rhand -7.89255 -50.3864
rfingers 7.12502
rthumb 18.0122 -79.5724
lclavicle 1.39149e-015 -1.59028e-015
lhumerus -37.9817 21.6058 65.4047
lradius 6.72862
lwrist -26.4547
lhand -20.1342 -16.2315
lfingers 7.12502
lthumb 6.21026 13.6575
rfemur -33.619 11.2108 13.3811
rtibia 17.3079
rfoot -21.5121 -13.9251
rtoes -32.9815
lfemur -35.6868 -16.0244 -12.0755
ltibia 19.7915
lfoot -10.7198 4.17046
ltoes -31.8609
593
root 10.0526 16.2972 17.1635 215.408 86.4997 189.218
lowerback -27.1031 -2.38076 -6.42873
upperback -3.50908 -0.697304 -1.11126
thorax 11.2094 -0.411218 2.2246
lowerneck 0.93611 -5.65469 -1.53555
upperneck -16.2078 -6.17591 8.64777
head -4.65797 -3.27998 3.16515
rclavicle -4.77083e-015 4.29375e-014
rhumerus -49.482 -41.2212 -55.6718
rradius 13.9442
rwrist 27.2323
rhand -8.66648 -50.6966
rfingers 7.12502
rthumb 17.2675 -79.9495
lclavicle -4.77083e-015 4.29375e-014
lhumerus -37.679 21.6656 65.6797
lradius 6.92336
lwrist -26.3732
lhand -18.9868 -16.5922
lfingers 7.12502
lthumb 7.3179 13.2612
rfemur -33.608 11.1331 13.2528
rtibia 17.3326
rfoot -21.4877 -13.96
rtoes -32.5386
lfemur -35.6479 -15.0233 -12.5872
ltibia 19.7268
lfoot -10.5088 3.03073
ltoes -31.9563
594
root 10.0603 16.2969 17.163 212.832 86.5611 186.71
lowerback -27.0188 -2.37504 -6.60847
upperback -3.46235 -0.631131 -1.21429
thorax 11.2146 -0.387637 2.23467
lowerneck 0.921193 -5.65136 -1.47961
upperneck -16.2005 -6.16931 8.63357
head -4.6563 -3.27828 3.1508
rclavicle -4.47266e-015 -7.95139e-016
rhumerus -48.8464 -40.7761 -56.6482
rradius 14.1073
rwrist 26.3498
rhand -8.95368 -50.6291
rfingers 7.12502
rthumb 16.991 -79.906
lclavicle -4.47266e-015 -7.95139e-016
lhumerus -37.4041 21.606 65.8451
lradius 7.21386
lwrist -26.4173
lhand -18.5968 -16.5197
lfingers 7.12502
lthumb 7.69435 13.3203
rfemur -33.4498 11.1864 13.1128
rtibia 17.311
rfoot -21.3282 -14.0298
rtoes -32.307
lfemur -35.4939 -16.7233 -12.2459
ltibia 19.6095
lfoot -10.7893 4.6809
ltoes -32.2352
595
root 10.085 16.2879 17.1491 217.214 86.3087 190.792
lowerback -27.5941 -2.31464 -6.15545
upperback -3.48142 -0.63599 -1.16995
thorax 11.4889 -0.373929 2.01866
lowerneck 1.02568 -5.62269 -1.42372
upperneck -16.2222 -6.13066 8.60061
head -4.68607 -3.26349 3.13455
rclavicle 1.43125e-014 1.90833e-014
rhumerus -48.6214 -40.6538 -56.9754
rradius 14.3096
rwrist 26.2206
rhand -8.42429 -50.1896
rfingers 7.12502
rthumb 17.5006 -79.4219
lclavicle 1.43125e-014 1.90833e-014
lhumerus -37.3287 21.5372 65.9955
lradius 7.56521
lwrist -26.8699
lhand -26.4379 -12.6371
lfingers 7.12502
lthumb 0.12279 17.3426
rfemur -33.4991 10.9791 13.4755
rtibia 17.0916
rfoot -21.225 -13.8882
rtoes -32.2854
lfemur -35.468 -14.2811 -12.8175
ltibia 19.2594
lfoot -10.3541 2.39251
ltoes -32.6625
